<?xml version="1.0" encoding="UTF-8" standalone="no"?>
<svg width="30px" height="30px" viewBox="0 0 30 30" version="1.1" xmlns="http://www.w3.org/2000/svg" xmlns:xlink="http://www.w3.org/1999/xlink" xmlns:sketch="http://www.bohemiancoding.com/sketch/ns">
    <!-- Generator: Sketch 3.4.4 (17249) - http://www.bohemiancoding.com/sketch -->
    <title>icon_gear</title>
    <desc>Created with Sketch.</desc>
    <defs></defs>
    <g id="Page-1" stroke="none" stroke-width="1" fill="none" fill-rule="evenodd" sketch:type="MSPage">
        <g id="Interactions" sketch:type="MSArtboardGroup" transform="translate(-1162.000000, -20.000000)" stroke="#2E3D49" stroke-width="2">
            <g id="content-header" sketch:type="MSLayerGroup">
                <g id="icon_gear" transform="translate(1164.000000, 21.000000)" sketch:type="MSShapeGroup">
                    <path d="M7.0621353,21.0470299 C7.66050384,21.4892977 8.30995072,21.8664173 9,22.1679126 L9,24.0029953 C9,25.1050211 9.89458045,26 10.9981014,26 L15.0018986,26 C16.1132936,26 17,25.1059106 17,24.0029953 L17,22.1679126 C17.6900493,21.8664173 18.3394962,21.4892977 18.9378647,21.0470299 L20.5288735,21.9655993 C21.4832558,22.5166122 22.7056205,22.1893722 23.2573809,21.2336951 L25.2592796,17.7663049 C25.8149771,16.8038086 25.4840261,15.5888537 24.5288735,15.0373961 L22.9380971,14.1189609 C22.9789982,13.7516141 23,13.3782597 23,13 C23,12.6217403 22.9789982,12.2483859 22.9380971,11.8810391 L24.5288735,10.9626039 C25.4840261,10.4111463 25.8149771,9.19619139 25.2592796,8.23369508 L23.2573809,4.76630492 C22.7056205,3.81062778 21.4832558,3.48338781 20.5288735,4.03440071 L18.9378647,4.95297006 C18.3394962,4.51070227 17.6900493,4.13358273 17,3.83208737 L17,1.99700466 C17,0.894978851 16.1054196,0 15.0018986,0 L10.9981014,0 C9.88670635,0 9,0.89408944 9,1.99700466 L9,3.83208737 C8.30995072,4.13358273 7.66050384,4.51070227 7.0621353,4.95297006 L5.47112652,4.03440071 C4.51674417,3.48338781 3.29437953,3.81062778 2.74261907,4.76630492 L0.740720428,8.23369508 C0.185022927,9.19619139 0.515973919,10.4111463 1.47112652,10.9626039 L3.06190286,11.8810391 C3.02100177,12.2483859 3,12.6217403 3,13 C3,13.3782597 3.02100177,13.7516141 3.06190286,14.1189609 L1.47112652,15.0373961 C0.515973919,15.5888537 0.185022927,16.8038086 0.740720428,17.7663049 L2.74261907,21.2336951 C3.29437953,22.1893722 4.51674417,22.5166122 5.47112652,21.9655993 L7.0621353,21.0470299 Z M13,15 C14.1045695,15 15,14.1045695 15,13 C15,11.8954305 14.1045695,11 13,11 C11.8954305,11 11,11.8954305 11,13 C11,14.1045695 11.8954305,15 13,15 Z" id="Rectangle-468"></path>
                </g>
            </g>
        </g>
    </g>
</svg>